<svg width="33" height="32" viewBox="0 0 33 32" fill="none" xmlns="http://www.w3.org/2000/svg">
<ellipse rx="16.5" ry="16" transform="matrix(-1 0 0 1 16.5 16)" fill="#FE9C35"/>
<path d="M7.7462 16.4697C7.7462 16.4579 7.75797 16.446 7.75797 16.4342C7.76979 16.316 7.81712 16.2214 7.87623 16.1387C7.88806 16.115 7.88802 16.0796 7.91166 16.056C7.93531 16.0323 7.95895 16.0441 7.98259 16.0323C7.99442 16.0205 7.99444 16.0086 8.00626 16.0086L14.4376 10.1685C14.6622 9.94384 15.0287 9.94384 15.2534 10.1685C15.478 10.3931 15.478 10.7595 15.2534 10.9841L9.85054 15.8904H23.6827C24.0137 15.8904 24.2738 16.1505 24.2738 16.4816C24.2738 16.8008 24.0137 17.0727 23.6827 17.0727H9.85054L15.2534 21.9908C15.478 22.2154 15.478 22.5818 15.2534 22.8065C15.0287 23.0311 14.6622 23.0311 14.4376 22.8065L7.98259 16.9308C7.97077 16.919 7.959 16.9308 7.959 16.919C7.94718 16.9072 7.93533 16.919 7.93533 16.9071C7.92351 16.8953 7.93532 16.8835 7.9235 16.8835C7.82892 16.7889 7.78162 16.6589 7.7698 16.5171C7.7698 16.5052 7.7698 16.5052 7.7698 16.4934C7.74615 16.4816 7.7462 16.4815 7.7462 16.4697Z" fill="#2F2F2F"/>
</svg>
