<svg width="33" height="32" viewBox="0 0 33 32" fill="none" xmlns="http://www.w3.org/2000/svg">
<ellipse cx="16.5" cy="16" rx="16.5" ry="16" fill="#FE9C35"/>
<path d="M25.2538 16.4697C25.2538 16.4579 25.242 16.446 25.242 16.4342C25.2302 16.316 25.1829 16.2214 25.1238 16.1387C25.1119 16.115 25.112 16.0796 25.0883 16.056C25.0647 16.0323 25.0411 16.0441 25.0174 16.0323C25.0056 16.0205 25.0056 16.0086 24.9937 16.0086L18.5624 10.1685C18.3378 9.94384 17.9713 9.94384 17.7466 10.1685C17.522 10.3931 17.522 10.7595 17.7466 10.9841L23.1495 15.8904H9.31731C8.98629 15.8904 8.7262 16.1505 8.7262 16.4816C8.7262 16.8008 8.98629 17.0727 9.31731 17.0727H23.1495L17.7466 21.9908C17.522 22.2154 17.522 22.5818 17.7466 22.8065C17.9713 23.0311 18.3378 23.0311 18.5624 22.8065L25.0174 16.9308C25.0292 16.919 25.041 16.9308 25.041 16.919C25.0528 16.9072 25.0647 16.919 25.0647 16.9071C25.0765 16.8953 25.0647 16.8835 25.0765 16.8835C25.1711 16.7889 25.2184 16.6589 25.2302 16.5171C25.2302 16.5052 25.2302 16.5052 25.2302 16.4934C25.2538 16.4816 25.2538 16.4815 25.2538 16.4697Z" fill="#2F2F2F"/>
</svg>
