<svg width="23" height="23" viewBox="0 0 23 23" fill="none" xmlns="http://www.w3.org/2000/svg">
<path d="M12.0847 11.0007L21.7775 1.32347C22.076 1.02498 22.076 0.538058 21.7775 0.223863C21.4791 -0.0746211 20.992 -0.0746211 20.6778 0.223863L11.0007 9.9011L1.32347 0.223863C1.02498 -0.0746211 0.538058 -0.0746211 0.223863 0.223863C-0.0746211 0.522348 -0.0746211 1.00927 0.223863 1.32347L9.901 11.0007L0.223863 20.6937C-0.0746211 20.9921 -0.0746211 21.4791 0.223863 21.7933C0.522348 22.0917 1.00927 22.0917 1.32347 21.7933L11.0007 12.1003L20.6778 21.7933C20.9763 22.0917 21.4633 22.0917 21.7775 21.7933C22.076 21.4948 22.076 21.0079 21.7775 20.6937L12.0847 11.0007Z" fill="#3C4042"/>
</svg>
