<svg width="35" height="51" viewBox="0 0 35 51" fill="none" xmlns="http://www.w3.org/2000/svg">
<path d="M24.1002 8.64688L31.9917 17.0375H21.7732V8.64688" stroke="white" stroke-miterlimit="10" stroke-linecap="round" stroke-linejoin="round"/>
<path d="M8.98215 6.16913H4.18833C3.66324 6.16913 3.23636 6.62112 3.23636 7.17994V46.8607C3.23636 47.4195 3.66324 47.8715 4.18833 47.8715H31.0435C31.5686 47.8715 31.9955 47.4195 31.9955 46.8607V17.0375L24.104 8.64686" stroke="white" stroke-miterlimit="10" stroke-linecap="round" stroke-linejoin="round"/>
<path d="M27.9156 41.8107H13.6248" stroke="white" stroke-miterlimit="10" stroke-linecap="round" stroke-linejoin="round"/>
<path d="M27.9156 32.6024H13.6248" stroke="white" stroke-miterlimit="10" stroke-linecap="round" stroke-linejoin="round"/>
<path d="M27.9156 23.3941H13.6248" stroke="white" stroke-miterlimit="10" stroke-linecap="round" stroke-linejoin="round"/>
<path d="M18.8947 14.1817H13.6248" stroke="white" stroke-miterlimit="10" stroke-linecap="round" stroke-linejoin="round"/>
<path d="M11.7058 39.3782H7.23309V44.2433H11.7058V39.3782Z" stroke="#FE9C35" stroke-miterlimit="10" stroke-linecap="round" stroke-linejoin="round"/>
<path d="M11.7096 21.2657V25.8267H7.23309V23.3489" stroke="#FE9C35" stroke-miterlimit="10" stroke-linecap="round" stroke-linejoin="round"/>
<path d="M8.89523 20.9616H11.5018" stroke="#FE9C35" stroke-miterlimit="10" stroke-linecap="round" stroke-linejoin="round"/>
<path d="M7.2973 20.8424L9.43165 24.4584L12.2913 19.6303" stroke="#FE9C35" stroke-miterlimit="10" stroke-linecap="round" stroke-linejoin="round"/>
<path d="M11.7096 30.4534V35.0144H7.23309V32.5367" stroke="#FE9C35" stroke-miterlimit="10" stroke-linecap="round" stroke-linejoin="round"/>
<path d="M8.89523 30.1494H11.5018" stroke="#FE9C35" stroke-miterlimit="10" stroke-linecap="round" stroke-linejoin="round"/>
<path d="M7.2973 30.0302L9.43165 33.6461L12.2913 28.818" stroke="#FE9C35" stroke-miterlimit="10" stroke-linecap="round" stroke-linejoin="round"/>
<path d="M11.7096 11.9464V16.5074H7.23309V14.0297" stroke="#FE9C35" stroke-miterlimit="10" stroke-linecap="round" stroke-linejoin="round"/>
<path d="M8.89523 11.6423H11.5018" stroke="#FE9C35" stroke-miterlimit="10" stroke-linecap="round" stroke-linejoin="round"/>
<path d="M7.2973 11.5273L9.43165 15.1391L12.2913 10.311" stroke="#FE9C35" stroke-miterlimit="10" stroke-linecap="round" stroke-linejoin="round"/>
<path d="M26.2459 4.29953H34.228V50H1V4.29953H8.98214" stroke="white" stroke-miterlimit="10" stroke-linecap="round" stroke-linejoin="round"/>
<path d="M26.2459 1H8.98215V8.64688H26.2459V1Z" stroke="white" stroke-miterlimit="10" stroke-linecap="round" stroke-linejoin="round"/>
</svg>
