<svg width="43" height="51" viewBox="0 0 43 51" fill="none" xmlns="http://www.w3.org/2000/svg">
<path d="M42.3386 1H1V50H42.3386V1Z" stroke="white" stroke-miterlimit="10" stroke-linecap="round" stroke-linejoin="round"/>
<path d="M10.7123 21.2287H4.97408V27.4702H10.7123V21.2287Z" stroke="white" stroke-miterlimit="10" stroke-linecap="round" stroke-linejoin="round"/>
<path d="M19.8806 21.2287H14.1424V27.4702H19.8806V21.2287Z" stroke="white" stroke-miterlimit="10" stroke-linecap="round" stroke-linejoin="round"/>
<path d="M38.8821 6.60059H4.45654V16.6019H38.8821V6.60059Z" stroke="white" stroke-miterlimit="10" stroke-linecap="round" stroke-linejoin="round"/>
<path d="M29.0527 21.2287H23.3145V27.4702H29.0527V21.2287Z" stroke="white" stroke-miterlimit="10" stroke-linecap="round" stroke-linejoin="round"/>
<path d="M38.221 21.2287H32.4828V27.4702H38.221V21.2287Z" stroke="white" stroke-miterlimit="10" stroke-linecap="round" stroke-linejoin="round"/>
<path d="M10.7123 30.5109H4.97408V36.7525H10.7123V30.5109Z" stroke="white" stroke-miterlimit="10" stroke-linecap="round" stroke-linejoin="round"/>
<path d="M19.8806 30.5109H14.1424V36.7525H19.8806V30.5109Z" stroke="white" stroke-miterlimit="10" stroke-linecap="round" stroke-linejoin="round"/>
<path d="M29.0527 30.5109H23.3145V36.7525H29.0527V30.5109Z" stroke="white" stroke-miterlimit="10" stroke-linecap="round" stroke-linejoin="round"/>
<path d="M38.221 30.5109H32.4828V36.7525H38.221V30.5109Z" stroke="white" stroke-miterlimit="10" stroke-linecap="round" stroke-linejoin="round"/>
<path d="M10.7123 39.7932H4.97408V46.0348H10.7123V39.7932Z" stroke="white" stroke-miterlimit="10" stroke-linecap="round" stroke-linejoin="round"/>
<path d="M19.8806 39.7932H14.1424V46.0348H19.8806V39.7932Z" stroke="white" stroke-miterlimit="10" stroke-linecap="round" stroke-linejoin="round"/>
<path d="M29.0527 39.7932H23.3145V46.0348H29.0527V39.7932Z" stroke="white" stroke-miterlimit="10" stroke-linecap="round" stroke-linejoin="round"/>
<path d="M38.221 39.7932H32.4828V46.0348H38.221V39.7932Z" stroke="white" stroke-miterlimit="10" stroke-linecap="round" stroke-linejoin="round"/>
<path d="M9.66211 8.67561H6.77978V14.7405H9.66211V8.67561Z" stroke="#FE9C35" stroke-miterlimit="10" stroke-linecap="round" stroke-linejoin="round"/>
<path d="M15.0452 8.67561H12.1629V14.7405H15.0452V8.67561Z" stroke="#FE9C35" stroke-miterlimit="10" stroke-linecap="round" stroke-linejoin="round"/>
<path d="M20.4246 8.67561H17.5423V14.7405H20.4246V8.67561Z" stroke="#FE9C35" stroke-miterlimit="10" stroke-linecap="round" stroke-linejoin="round"/>
<path d="M25.8077 8.67561H22.9254V14.7405H25.8077V8.67561Z" stroke="#FE9C35" stroke-miterlimit="10" stroke-linecap="round" stroke-linejoin="round"/>
<path d="M28.3085 12.0204L31.1908 8.67561V14.7364" stroke="#FE9C35" stroke-miterlimit="10" stroke-linecap="round" stroke-linejoin="round"/>
<path d="M33.6916 12.0204L36.574 8.67561V14.7364" stroke="#FE9C35" stroke-miterlimit="10" stroke-linecap="round" stroke-linejoin="round"/>
</svg>
