<svg width="44" height="51" viewBox="0 0 44 51" fill="none" xmlns="http://www.w3.org/2000/svg">
<path d="M8.88212 50H1V1H8.88212H35.1217H43V50H35.1217H8.88212Z" stroke="white" stroke-miterlimit="10" stroke-linecap="round" stroke-linejoin="round"/>
<path d="M3 24V27L39 27V24L3 24Z" stroke="#FE9C35" stroke-miterlimit="10" stroke-linecap="round" stroke-linejoin="round"/>
<path d="M3 44V47H39V44H3Z" stroke="#FE9C35" stroke-miterlimit="10" stroke-linecap="round" stroke-linejoin="round"/>
<path d="M3 9V10L22 10V9L3 9Z" stroke="white" stroke-miterlimit="10" stroke-linecap="round" stroke-linejoin="round"/>
<path d="M3 29V30H22V29H3Z" stroke="white" stroke-miterlimit="10" stroke-linecap="round" stroke-linejoin="round"/>
<path d="M3 13V14L22 14V13L3 13Z" stroke="white" stroke-miterlimit="10" stroke-linecap="round" stroke-linejoin="round"/>
<path d="M3 33V34H22V33H3Z" stroke="white" stroke-miterlimit="10" stroke-linecap="round" stroke-linejoin="round"/>
<path d="M3 17V18H22V17H3Z" stroke="white" stroke-miterlimit="10" stroke-linecap="round" stroke-linejoin="round"/>
<path d="M3 37V38H22V37H3Z" stroke="white" stroke-miterlimit="10" stroke-linecap="round" stroke-linejoin="round"/>
<path d="M3 21V22H22V21H3Z" stroke="white" stroke-miterlimit="10" stroke-linecap="round" stroke-linejoin="round"/>
<path d="M3 41V42H22V41H3Z" stroke="white" stroke-miterlimit="10" stroke-linecap="round" stroke-linejoin="round"/>
<path d="M3 4V7L39 7V4L3 4Z" stroke="#FE9C35" stroke-miterlimit="10" stroke-linecap="round" stroke-linejoin="round"/>
</svg>
