<svg width="20" height="16" viewBox="0 0 20 16" fill="none" xmlns="http://www.w3.org/2000/svg">
<path d="M19.6307 0.603065C19.6307 0.590757 19.6307 0.590733 19.6307 0.578426C19.6184 0.430733 19.5692 0.307746 19.4707 0.209285C19.4584 0.196977 19.4707 0.184633 19.4584 0.172326C19.4461 0.160018 19.4216 0.159994 19.4093 0.147686C19.3108 0.0738401 19.2 0.0246274 19.0769 0.0123197C19.0523 0.0123197 19.0399 0 19.0153 0H0.603065C0.578449 0 0.566157 0.0123197 0.541541 0.0123197C0.418465 0.0246274 0.307671 0.0738401 0.20921 0.147686C0.196902 0.159994 0.172314 0.160018 0.160006 0.172326C0.147698 0.184633 0.159994 0.196977 0.147686 0.209285C0.0615324 0.307746 0 0.443041 0 0.578426C0 0.590733 0 0.590757 0 0.603065V0.615385V15.3846C0 15.7292 0.270769 16 0.615385 16H19.04C19.3846 16 19.6553 15.7292 19.6553 15.3846L19.6307 0.603065ZM17.28 1.23077L9.80919 7.22461L2.33842 1.23077H17.28ZM18.3999 14.1538C18.3999 14.4985 18.1292 14.7692 17.7846 14.7692H1.82151C1.4769 14.7692 1.20613 14.4985 1.20613 14.1538V1.87079L9.35382 8.4061C9.36612 8.41841 9.35383 8.43075 9.36614 8.44306C9.48921 8.56614 9.64919 8.61539 9.80919 8.61539C9.96919 8.61539 10.1292 8.56614 10.2523 8.44306C10.2646 8.43075 10.2523 8.41841 10.2646 8.4061L18.4123 1.87079V14.1538H18.3999Z" fill="#FE9C35"/>
</svg>
