<svg width="34" height="35" viewBox="0 0 34 35" fill="none" xmlns="http://www.w3.org/2000/svg">
<path fill-rule="evenodd" clip-rule="evenodd" d="M0 18.0775C0 20.2617 0.410754 22.1295 1.14587 24.1748C1.48891 25.1292 2.01389 26.0939 2.5313 26.9641C3.02826 27.7998 3.48746 28.3239 4.05241 29.0467L6.44998 31.3591C6.64921 31.523 6.83031 31.6484 7.03919 31.8046C7.93046 32.4711 8.69346 32.8761 9.65762 33.3608C11.5157 34.295 14.2782 34.9902 16.3776 34.9902C18.1467 34.9902 19.3488 34.9513 21.0951 34.4984L22.1579 34.1339C21.9494 34.0853 20.4825 33.2972 20.1665 33.0924C19.1577 32.4386 19.6309 32.7929 18.3046 32.8496C17.8717 32.8681 17.4564 32.9207 16.9841 32.9207C14.3724 32.9207 11.9418 32.2632 9.71622 31.0186C8.75677 30.4821 7.8232 29.8224 7.02064 29.0757C6.45994 28.554 6.22835 28.3605 5.66223 27.6867C5.50945 27.5049 5.38511 27.3585 5.24549 27.1757C5.17623 27.0851 5.11574 27.0177 5.04075 26.9166C4.9676 26.818 4.91845 26.7424 4.84717 26.6463C4.59359 26.3047 4.35582 25.9153 4.1319 25.5419C4.00696 25.3335 3.92449 25.1598 3.80614 24.9399L3.49725 24.3211C2.76975 22.8487 2.10518 20.5238 2.10518 18.3272C2.10518 16.2367 2.41592 14.3717 3.18029 12.5159C3.53532 11.6539 3.52602 12.0571 3.28984 11.1125L2.74743 8.87178C2.61971 8.96536 2.26899 9.62884 2.18337 9.77063C1.8063 10.3951 1.48438 11.1201 1.21315 11.7976C0.755162 12.9417 0.450314 14.0273 0.234496 15.3148C0.167466 15.7146 0.0773376 16.2301 0.0715618 16.6504C0.0691614 16.8251 0.0488575 16.8365 0.0375564 16.9732C0.0274008 17.0961 0.0385696 17.2401 0.0370994 17.3653C0.0345293 17.584 7.34743e-07 17.6515 7.34743e-07 18.0775H0ZM25.4405 32.9564C26.6263 32.9564 27.5396 32.4583 28.3514 31.871L30.6763 29.9499C30.9175 29.715 31.5435 29.2752 31.701 29.0478C32.0631 28.5251 31.9163 27.6476 31.7346 27.1262C31.377 26.1006 30.675 25.095 29.9628 24.2951C29.8864 24.2094 29.8596 24.1602 29.785 24.0805L29.2131 23.4749C29.1327 23.3914 29.125 23.36 29.0529 23.2782C28.7092 22.8879 27.6106 21.9402 27.225 21.6452C26.297 20.9353 25.7875 20.4685 24.8405 21.0812C23.5388 21.9236 22.975 22.935 22.2223 24.172C22.0948 24.3816 21.5348 25.5535 21.5156 25.7845C21.3726 25.7726 21.1163 25.5982 20.9916 25.5235L19.3088 24.4233C19.2244 24.361 19.164 24.3277 19.0808 24.2588C18.4953 23.7736 17.8735 23.3308 17.3327 22.7956C17.2443 22.7081 17.2057 22.6946 17.1182 22.6176C17.0391 22.548 16.9801 22.48 16.9038 22.4038L15.1845 20.5193C14.1701 19.2201 13.2277 17.8804 12.4883 16.4005C12.2159 15.8552 11.9272 15.3273 11.7033 14.7591C11.5535 14.3787 11.3843 14.0014 11.2436 13.6132C10.9513 12.8061 10.6984 12.049 10.4902 11.1554C10.8594 11.1246 11.262 10.991 11.6169 10.8905C12.9607 10.5102 15.5553 9.71897 16.1186 8.39877C16.3948 7.75153 15.906 6.88803 15.6404 6.29056C15.4939 5.9608 15.3716 5.64433 15.2118 5.32763L14.76 4.38787C14.296 3.45981 13.8152 2.56087 13.1972 1.74036C13.0952 1.60496 13.0041 1.502 12.8964 1.3632C12.5114 0.867194 11.9306 0.334099 11.3322 0.108653C10.7358 -0.115993 10.2109 0.0286144 9.71219 0.351004L7.18204 2.06688C6.71751 2.41555 6.0389 2.93869 5.68833 3.39196C5.22587 3.9899 4.88705 4.36062 4.62465 5.14709C4.26374 6.22885 4.49576 7.41993 4.70072 8.45277C4.85119 9.21098 5.41045 11.4536 5.68373 12.144L6.16825 13.5505C6.24789 13.7904 6.33239 14.0334 6.42257 14.2596C6.78267 15.163 7.08556 16.0949 7.48081 16.9835L7.76336 17.6287C8.41851 19.2069 9.37698 20.7281 10.3472 22.1097L12.7113 24.9193C13.0357 25.2426 13.3333 25.5407 13.6569 25.8648C14.2854 26.4944 14.969 27.0839 15.6557 27.6482C16.1678 28.0691 17.8432 29.1879 18.4114 29.5667C19.6008 30.3598 20.9181 31.2895 22.1933 31.9219C23.127 32.385 24.1642 32.9564 25.4405 32.9564V32.9564ZM15.2714 1.20037C15.3641 1.37555 15.4642 1.51332 15.5684 1.6884L16.0001 2.43414C16.0609 2.53588 16.0846 2.57656 16.1394 2.68737C16.228 2.86638 16.3684 3.04157 16.4132 3.23419C16.7094 3.23419 16.9513 3.16226 17.2902 3.21357C17.4489 3.23759 17.5626 3.23449 17.7342 3.2334C18.1721 3.23062 19.4192 3.41038 19.8002 3.48668C20.8818 3.70326 22.3177 4.14982 23.3116 4.6495C23.5293 4.75894 23.7169 4.84374 23.9302 4.95859C24.3332 5.17563 24.7202 5.40615 25.0908 5.65338C25.9247 6.20957 26.0524 6.37191 26.6743 6.85302L27.18 7.31066C28.5585 8.70159 29.4418 9.81665 30.3293 11.6187C30.4296 11.8222 30.5223 12.0484 30.6153 12.2605C30.9741 13.079 31.0844 13.5345 31.3322 14.3623C31.867 16.1489 31.8925 18.4764 31.6237 20.3357C31.4888 21.2685 31.3423 21.6414 31.1454 22.3956C31.0775 22.6559 31.3808 22.8586 31.7254 23.2818C31.8397 23.4221 32.5318 24.2962 32.5767 24.4644L32.9024 23.791C33.1473 23.1134 33.3822 22.3183 33.5253 21.5951C33.7576 20.4205 33.8812 19.2872 33.8969 18.1833V17.6874C33.8544 14.9149 33.1192 12.3204 31.6969 9.71587C31.1601 8.73275 30.6599 8.10746 30.008 7.26583C29.5763 6.70854 28.4399 5.57488 27.9332 5.16596C27.0068 4.41838 26.5647 4.06821 25.519 3.44118C25.2937 3.30613 25.0831 3.20772 24.8546 3.07084C24.2563 2.71258 23.3435 2.37245 22.6725 2.11302C21.2314 1.55591 19.0301 1.12901 17.3766 1.12901C16.9328 1.12901 16.3237 1.11398 15.9084 1.15944C15.803 1.17098 15.6989 1.1585 15.5946 1.16668C15.4566 1.17748 15.4482 1.20037 15.2714 1.20037Z" fill="#FE9C35"/>
</svg>
