<svg width="97" height="60" viewBox="0 0 97 60" fill="none" xmlns="http://www.w3.org/2000/svg">
<g clip-path="url(#clip0)">
<path fill-rule="evenodd" clip-rule="evenodd" d="M34.2474 6.9118C34.2386 6.9061 34.2288 6.90016 34.2196 6.89442C34.3108 6.56975 34.3638 6.34896 34.3638 6.35289C34.3309 6.3503 34.2166 6.53628 34.0659 6.8021C33.9125 6.71388 33.7292 6.61833 33.5203 6.51789C33.7487 5.90352 33.848 5.57667 33.848 4.04652C33.848 3.55631 32.6181 5.66841 32.6181 4.95087C32.6181 4.35645 32.917 3.57105 32.7802 3.81815C31.5906 5.96652 32.502 3.49285 31.9334 4.11924C30.4247 5.78146 30.8347 4.07672 30.6208 4.34761C30.0105 5.12031 30.4443 4.04309 30.1685 4.57368C29.8996 5.09086 30.2763 2.24397 30.2773 2.21959C30.3905 -0.561283 30.8664 -0.585075 30.0132 1.34816C28.3389 5.14171 28.1006 3.32446 28.7334 0.988014C29.4145 -1.52704 25.9448 5.95731 26.1148 1.90602C26.1645 0.722028 25.8313 3.76302 24.6693 4.61695C24.4324 4.66696 24.2157 4.73582 24.0228 4.82596C23.9107 4.87832 24.766 4.79287 25.8947 4.82584L27.7018 5.13384C28.4654 5.26394 29.1182 5.393 29.6774 5.52088C31.8119 6.19544 33.2726 6.95452 32.3918 7.31225C31.6978 7.59411 29.8744 7.976 28.7979 8.31374C28.1001 16.2338 27.0974 24.4556 26.9898 32.5978C26.9713 33.9984 25.7127 33.5283 25.0864 33.7216C24.9244 33.7715 26.5637 34.0121 26.9803 34.0121C29.0779 33.8265 30.2399 33.1547 32.3375 32.4223C33.8018 24.2838 34.8056 15.1772 34.2474 6.9118ZM23.2395 23.9194C23.8739 21.5538 24.0328 17.9223 21.9404 16.2097L22.703 16.0271C25.0486 16.7076 24.5968 22.5225 23.2395 23.9194ZM18.793 16.9631L17.049 17.3806C17.0368 17.3835 16.7424 17.3862 16.4295 17.6569C16.2037 17.8522 15.9665 18.2416 15.8222 18.6114C14.5643 21.8346 15.9272 24.7845 15.9239 24.7532C15.1461 17.3806 17.5103 17.5147 17.6505 17.6404C18.3173 18.2381 18.793 19.8012 18.793 21.6355C18.793 23.6201 18.236 25.2874 17.4826 25.7578L18.8406 25.3438C18.7356 25.7743 18.612 26.2071 18.4691 26.6424C18.4641 28.0339 18.4737 29.4495 18.4957 30.8879C18.508 31.6928 23.9305 33.2794 24.8246 33.5916C26.7231 25.4659 27.3689 16.9711 27.4639 8.31378C27.249 8.24634 27.0311 8.17689 26.8109 8.10585C26.7757 7.99103 26.7478 7.91438 26.7463 7.91522C26.3177 8.14828 26.4888 7.54267 26.3773 7.66356C26.2272 7.82633 26.2709 7.28125 26.2719 7.27953C26.223 7.50815 25.6439 7.94337 25.5096 8.09755C25.2464 8.3996 25.5105 6.78815 25.3826 7.03411C25.2965 7.19978 25.2981 6.13168 25.2981 6.00024C25.2981 5.8871 24.6644 7.18721 24.5063 7.45961C24.2394 7.91953 24.0365 8.73307 24.0484 7.75956C24.0749 5.57709 23.6846 7.84472 23.6301 6.89153C23.6036 6.42967 23.3541 7.61995 23.3541 6.86995C23.3541 6.86334 23.2012 7.72287 23.0151 8.02999C22.9159 8.19369 23.0168 5.45327 23.0168 4.90672C23.0168 4.83484 22.125 6.942 21.7852 6.88818C21.6722 6.68636 21.7076 6.40496 21.7076 6.17412C21.7076 6.09595 21.2699 6.77047 21.2513 6.81035C21.2513 6.00368 21.4298 5.35534 21.4298 4.46422C21.4298 4.45761 21.2764 5.34747 21.2116 5.69241C21.1504 6.01859 20.8941 6.83347 20.8727 6.98929C20.8652 7.044 21.2034 4.60693 21.3703 3.56779C21.3916 3.43509 21.6926 2.26709 21.529 2.57878C21.0656 3.46194 20.9178 4.99649 20.6112 6.0392C20.493 6.00146 20.3755 5.9643 20.2588 5.92769C19.5351 9.32235 19.068 13.0126 18.793 16.9631ZM86.3646 14.3906L86.4496 14.4083L86.4837 14.1924C90.2257 12.7097 93.1116 11.6767 95.1412 11.0934L96.7979 15.3911L96.2535 15.6019L92.6068 12.3788L91.6884 12.2784L95.3245 21.6101C95.9198 21.5316 96.4781 21.6109 96.9996 21.848C94.9925 22.6252 93.3937 23.2612 92.203 23.756L91.9056 23.1873L92.841 23.0784C92.5748 22.4891 92.3029 21.8345 92.0254 21.1145C91.1985 18.9693 90.7739 17.4114 90.7516 16.4406L90.3775 16.1802L89.3581 13.5355L88.7797 13.9114L88.0384 18.2765L87.6471 18.6306L86.4183 14.568L85.5071 15.2799L85.7962 15.3199C85.9322 15.5712 86.0625 15.8585 86.1871 16.1818C86.306 16.4903 86.4504 16.9325 86.6203 17.5084C86.8128 18.1431 86.9543 18.5949 87.0449 18.8638C87.0449 18.8638 87.7387 20.6637 89.1263 24.2634L89.9086 24.2138L90.206 24.7825C89.35 24.8945 88.5137 25.1085 87.6973 25.4246C86.8922 25.7364 86.3054 26.0902 85.9368 26.4863L85.6564 25.759L86.3197 25.6541C85.4702 23.4164 84.8415 21.8192 84.4337 20.8627L82.0014 21.8045L82.1884 21.884C82.3865 22.8712 82.6668 23.8349 83.0292 24.7753C83.2784 25.4217 83.5475 25.9845 83.8364 26.4637L84.8908 26.5114L84.5422 26.5197C84.1282 26.8995 83.5697 27.2256 82.8667 27.4978C81.9708 27.8447 81.1573 27.9993 80.426 27.9616L80.2644 28.2521L81.2681 27.5089L78.9403 21.47L78.7533 21.2892C78.759 21.1012 78.4249 20.1329 77.7509 18.3845L76.3052 18.691L76.5605 18.2375C77.7626 17.5695 79.1857 16.9509 80.8298 16.3817L80.8977 16.9634L80.4044 17.3571L82.0355 21.5887L84.6039 20.5942L82.8878 16.1421L81.7143 16.1406L81.5274 15.6557L82.1055 16.0398C84.3806 15.1588 85.8058 14.6277 86.3814 14.4464L86.3646 14.3906ZM69.6714 26.8067C69.6658 26.5894 69.5739 26.0719 69.3956 25.2544C69.2174 24.437 69.0772 23.9466 68.9753 23.7835L71.6299 19.3109C72.0324 19.4083 72.8572 19.4858 74.1043 19.5432L78.3292 23.0998L77.9189 29.2363L75.801 30.639C74.4518 30.7223 73.42 30.7166 72.7058 30.6217L69.6714 26.8067ZM71.6028 23.5513L71.7219 23.3532L72.945 27.4388L75.4186 29.7485L75.9554 26.8811L74.2223 22.385L72.0975 19.6111L71.6028 23.5513ZM56.2889 26.5935L56.0849 26.3686L55.7448 26.1963C55.6314 26.2402 56.0595 26.0829 57.029 25.7244C57.7263 25.4713 58.2877 25.2539 58.7129 25.0724C59.3026 24.8103 59.6683 24.5927 59.8101 24.4196C59.912 24.8529 60.6344 25.8312 61.9774 27.3544C62.833 28.2895 63.6916 29.232 64.5529 30.1818C64.1571 27.1942 63.9482 24.7422 63.9263 22.8257L67.7021 21.8195L67.362 21.8499L66.6474 22.5319C66.9704 22.9978 67.2508 23.5394 67.4887 24.1565C67.6246 24.5091 67.7973 25.0417 68.0068 25.7542C68.2219 26.5152 68.3975 27.072 68.5334 27.4246C68.709 27.9139 69.0063 28.584 69.4255 29.4348C69.8844 30.3885 70.1931 31.0542 70.3517 31.4318L71.202 31.3052L71.4145 31.5522C70.8077 32.1755 69.892 32.7243 68.6674 33.1985C67.9303 33.4839 67.2471 33.6724 66.6178 33.7641C66.7427 33.4118 67.012 33.1302 67.4259 32.9193C67.5109 33.1397 67.1994 32.3484 66.4914 30.5456C65.9194 29.0954 65.472 27.9346 65.1492 27.0633C64.6904 25.8394 64.4667 25.1408 64.4782 24.9676L64.6143 24.6109C64.7834 27.281 64.771 30.4435 64.5769 34.0985L64.2537 34.2236C62.922 32.9662 62.0125 31.8577 61.5254 30.8981L61.5001 30.1733L58.542 27.3167C59.0007 28.5407 59.8531 30.6844 61.0992 33.748C61.4222 33.9775 61.7353 34.2151 62.0385 34.4608C62.3417 34.7064 62.5811 35.0232 62.7567 35.4111C62.2351 35.5455 61.722 35.6851 61.2175 35.8298C60.3614 36.0431 59.8738 36.1306 59.7548 36.0923L60.5548 34.1614C59.2803 31.3284 58.3486 29.0803 57.7596 27.4171L56.2889 26.5935ZM58.5498 34.0007L58.2096 34.2338L58.9324 34.2325L56.448 38.234L53.1232 38.331L49.5362 34.4008L49.2479 32.1315L50.3546 28.4101L51.7666 27.3061L57.1313 29.7628L57.7008 30.6821C57.2245 31.0016 56.5894 31.315 55.7957 31.6224C54.537 32.1098 53.3464 32.4357 52.2239 32.6002L53.2266 34.6942L56.1591 37.6873L58.5498 34.0007ZM52.2154 32.3755L52.4024 32.6577L54.6307 31.4402L54.1721 29.9461L52.0641 27.4189C51.8819 29.7859 51.9324 31.4381 52.2154 32.3755ZM41.7119 42.3696L42.1369 42.9649C42.018 42.3524 41.8199 41.6862 41.5423 40.9662C41.1176 39.8642 40.6247 38.9068 40.0638 38.094C39.8601 36.8895 39.4072 35.3762 38.7049 33.5543C38.0479 31.8499 37.2945 30.166 36.4448 28.5024L34.574 28.7202L34.404 28.4821C35.1185 28.0704 36.2014 27.516 37.6529 26.8188C37.8797 26.731 38.2439 26.6448 38.7457 26.5603C39.2474 26.4758 39.6116 26.3896 39.8384 26.3018C40.1559 26.1789 40.4196 26.0008 40.6294 25.7676C41.803 25.5665 42.71 25.4348 43.3506 25.3725C44.6035 25.242 45.5275 25.2557 46.1227 25.4136L48.0861 28.0221L48.2977 30.5997L47.7443 32.5617L44.5972 34.9455L42.6923 35.2778C43.6719 38.2588 44.3827 40.2717 44.8245 41.3164L46.7122 41.244L46.8397 41.5746C44.2714 42.2482 42.4713 42.7848 41.4395 43.1843C41.0652 43.3292 40.7052 43.4771 40.3594 43.6279L40.334 43.3591L41.7119 42.3696ZM39.4214 27.4005L38.9795 26.8624L40.8654 31.7552L41.7239 32.6639L42.4544 35.0659C42.9477 34.6554 43.8096 34.0177 45.0401 33.1529L44.8455 30.2647L43.9705 27.9946L40.5952 26.5914L39.4214 27.4005ZM23.6518 34.7674C23.6742 34.7688 23.6912 34.7742 23.7031 34.7824C24.6633 35.0567 25.97 35.1263 26.8273 34.4045C26.9098 34.484 26.9039 34.5334 26.9044 34.6751L26.8992 34.9921C26.7891 35.4276 26.4244 35.0543 26.1645 35.5108C26.121 35.5872 26.1445 35.5488 26.1006 35.6263C26.0102 35.786 25.9313 35.9299 25.8446 36.0856C25.7661 36.2265 25.6511 36.4019 25.5954 36.5519C25.5009 36.8063 25.5748 36.8857 25.3356 37.0076C25.1048 37.1253 24.6146 37.3248 24.3446 37.4461C24.1114 37.551 24.0049 37.6254 23.817 37.5847C23.8142 37.5808 23.8097 37.5706 23.8083 37.5735C23.796 37.5987 23.7462 37.465 23.7421 37.4092C23.7302 37.2482 23.771 36.7463 23.7208 36.6854C23.7242 36.5903 23.6728 36.4345 23.6075 36.3852C23.5669 36.2718 23.4434 36.0689 23.3761 35.9543C23.2955 35.817 23.2255 35.6771 23.1461 35.5368C23.0613 35.3866 23.0868 35.4204 22.828 35.202C22.589 35.1967 22.4613 35.2152 22.3944 34.996L22.3896 34.6675C22.3903 34.5523 22.4034 34.483 22.4369 34.4331C22.4508 34.4125 22.4683 34.3951 22.4898 34.3792C22.7554 34.1064 22.9693 33.8605 23.3787 33.7769C24.317 33.5851 26.0015 33.9956 25.9559 33.9938C25.4585 33.9742 22.6242 33.6472 23.3174 34.6549C23.4073 34.689 23.5026 34.7216 23.602 34.7523C23.6169 34.7565 23.6325 34.7613 23.6491 34.7666L23.6518 34.7674ZM25.5326 42.3094C25.5265 42.2868 25.5196 42.2655 25.5117 42.246C25.4872 42.246 25.4919 42.2513 25.5005 42.2278C25.4196 42.1838 25.3629 42.1775 25.3063 42.1913L24.9358 41.9978C25.1927 41.8832 25.4151 41.7748 25.4595 41.7213C25.5819 41.5739 25.5882 41.2224 25.5117 41.0317C25.4872 41.0317 25.4919 41.037 25.5004 41.0134C25.3453 40.9292 25.2792 40.9833 25.132 41.052C25.0271 41.1009 24.9083 41.1524 24.7995 41.1964C24.5925 41.2801 24.3253 41.4279 24.1198 41.4873C24.1036 41.5045 24.0766 41.5192 24.0456 41.5331L22.2249 40.5826L21.7541 42.4052L18.1753 45.2315L16.5752 40.2767L-0.000488281 50.4453L15.8543 42.8185L17.6656 46.7684L22.7004 45.1223L28.6958 60L26.0758 45.4506L36.5121 46.1153L45.1587 53.6211L47.3801 47.0431L55.6284 50.1384L62.9244 38.5234L76.2634 36.4172L92.9072 25.77L75.7061 35.0579L61.8068 37.5959L55.2251 47.6836L46.2669 45.5285L43.288 50.1108L35.8623 43.5987L27.3657 43.7674L28.3355 40.7742L25.5495 42.3182L25.5326 42.3094ZM25.1641 38.6251C24.9151 38.748 24.6361 38.8534 24.3827 38.9673C24.248 39.0278 24.1248 39.0787 23.9924 39.1387C23.8551 39.2009 23.7848 39.2632 23.7469 39.4303L23.7428 39.8291L23.7839 39.9564C24.0093 40.041 24.0594 39.9627 24.2764 39.8669C24.4364 39.7962 24.5918 39.7284 24.7507 39.6596C24.912 39.5899 25.0665 39.5227 25.2237 39.4521C25.4229 39.3628 25.4894 39.3366 25.551 39.113L25.5504 38.721C25.5347 38.6676 25.515 38.6377 25.5063 38.6025C25.3003 38.5239 25.3591 38.5592 25.1641 38.6251ZM23.8107 38.0617C23.7824 38.1378 23.7447 38.2045 23.7405 38.3111C23.7364 38.4133 23.7399 38.5328 23.7429 38.6357C23.7578 38.6898 23.7659 38.6949 23.7713 38.7418C23.8158 38.7628 23.797 38.7541 23.8121 38.78C24.0323 38.8112 24.0057 38.7855 24.2517 38.6823L25.3037 38.2198C25.3916 38.1799 25.4413 38.1172 25.4853 38.1022C25.503 38.0483 25.4827 38.0752 25.5225 38.0451C25.5376 37.8574 25.634 37.4592 25.442 37.3766C25.3161 37.3223 24.998 37.502 24.8776 37.554L24.0502 37.9179C23.8529 38.0058 23.8654 38.0412 23.8107 38.0617ZM24.1199 40.2731C24.0734 40.3225 23.9378 40.351 23.8751 40.4023C23.8092 40.4561 23.7712 40.5344 23.7423 40.6476C23.7393 40.8017 23.7093 41.0092 23.7865 41.1313C23.8824 41.2266 23.9512 41.2103 24.0784 41.1523C24.3301 41.0374 25.3581 40.6292 25.4596 40.507C25.5819 40.3597 25.5883 40.0082 25.5117 39.8174C25.4872 39.8174 25.4919 39.8228 25.5005 39.7992C25.3453 39.7149 25.2793 39.7691 25.132 39.8377C25.0271 39.8867 24.9083 39.9381 24.7995 39.9821C24.5925 40.0659 24.3254 40.2137 24.1199 40.2731ZM34.3906 13.2292C35.9365 14.7989 36.1357 18.7472 34.404 20.7351L91.0371 4.75514C90.4039 4.28573 91.4886 3.99971 91.5173 3.9847C91.9897 3.73693 90.749 3.83901 90.2975 3.82222C88.4607 3.75381 90.9365 3.1169 90.4039 3.1169C89.6112 3.1169 88.8728 2.94795 88.991 2.86807C90.7919 2.33768 88.7415 2.80981 88.991 2.50549C89.2655 2.17089 88.535 2.55747 88.4986 2.35054C88.4639 2.33768 88.3096 2.31906 88.0759 2.33768L35.8725 12.9807L34.3906 13.2292Z" fill="#FE9C35"/>
</g>
<defs>
<clipPath id="clip0">
<rect width="97" height="60" fill="white"/>
</clipPath>
</defs>
</svg>
