<svg width="25" height="45" viewBox="0 0 25 45" fill="none" xmlns="http://www.w3.org/2000/svg">
<rect x="1" y="1" width="23" height="43" rx="8" stroke="#FE9C35" stroke-width="2"/>
<path d="M12.2929 39.7071C12.6834 40.0976 13.3166 40.0976 13.7071 39.7071L20.0711 33.3431C20.4616 32.9526 20.4616 32.3195 20.0711 31.9289C19.6805 31.5384 19.0474 31.5384 18.6569 31.9289L13 37.5858L7.34315 31.9289C6.95262 31.5384 6.31946 31.5384 5.92893 31.9289C5.53841 32.3195 5.53841 32.9526 5.92893 33.3431L12.2929 39.7071ZM12 38V39H14V38H12Z" fill="#FE9C35"/>
<circle cx="12.5" cy="26.5" r="1.5" fill="#FE9C35"/>
<circle cx="12.5" cy="17.5" r="1.5" fill="#FE9C35"/>
<circle cx="12.5" cy="8.5" r="1.5" fill="#FE9C35"/>
</svg>
