<svg width="16" height="16" viewBox="0 0 16 16" fill="none" xmlns="http://www.w3.org/2000/svg">
<path d="M13.64 0.263554C13.01 -0.176446 12.31 -0.0164509 12.03 0.383549C11.86 0.623549 10.08 3.29354 9.88 3.62354C9.79 3.76354 9.75 3.94355 9.75 4.13355C9.75 4.37355 9.81996 4.64358 9.95996 4.91358C10.1 5.17358 10.54 5.9435 10.76 6.3335C10.52 6.6635 9.91998 7.45349 8.66998 8.69349C7.42998 9.92348 6.63999 10.5336 6.29999 10.7736C5.91999 10.5536 5.14001 10.1135 4.88 9.98352C4.4 9.73352 3.90997 9.70357 3.58997 9.90357C3.27997 10.0936 0.619995 11.8636 0.369995 12.0436C0.129995 12.2136 0 12.5235 0 12.8535C0 13.1135 0.08 13.3936 0.25 13.6436C0.27 13.6636 1.93997 16.0135 2.90997 15.9835C5.63997 15.8935 8.83999 13.2536 11.05 11.0536C13.26 8.85359 15.91 5.66348 15.99 2.93348V2.91358C15.98 1.96358 13.66 0.283554 13.64 0.263554ZM10.33 10.3535C7.42002 13.2535 4.78998 14.9035 2.91998 14.9835C2.56998 14.8535 1.65997 13.9435 1.02997 13.0735C0.989968 13.0135 0.959961 12.9335 0.959961 12.8535C0.959961 12.8335 0.959961 12.8235 0.959961 12.8135C1.36996 12.5335 3.65002 11.0235 4.08002 10.7535C4.12002 10.7535 4.23996 10.7635 4.39996 10.8535C4.56996 10.9435 5.07998 11.2335 5.78998 11.6335L6.33997 11.9435L6.85999 11.5835C7.24999 11.3135 8.08998 10.6636 9.35999 9.39356C10.64 8.11356 11.29 7.27356 11.56 6.89356L11.92 6.37354L11.61 5.82349C11.3 5.29349 10.94 4.64348 10.83 4.43348C10.74 4.26348 10.73 4.15354 10.73 4.12354V4.11353C10.97 3.73353 12.52 1.40353 12.8 0.993534C12.84 0.983534 12.93 0.993491 13.04 1.07349C13.92 1.70349 14.84 2.6035 14.97 2.9535C14.89 4.8235 13.24 7.45352 10.33 10.3535Z" fill="#FE9C35"/>
</svg>
